<svg version="1.1" xmlns="http://www.w3.org/2000/svg" xmlns:xlink="http://www.w3.org/1999/xlink" width="100" height="100"><defs/><g><rect fill="black" stroke="none" x="0" y="0" width="100" height="100"/><g transform="translate(-180.73333333333335,-224.33333333333337)"><path fill="none" stroke="rgb(168,168,168)" paint-order="fill stroke markers" d=" M 188.49811922926216 245.885453755855 L 188.4991239172062 245.88717756055635 L 188.59959240355616 246.05944466803533 L 188.70006027990473 246.2314872950049 L 188.80052754625194 246.40330544146497 L 188.90099420259776 246.57489910741555 L 189.0014602489422 246.74626829285668 L 189.10192568528527 246.9174129977884 L 189.20239051162696 247.08833322221062 L 189.30285472796723 247.25902896612337 L 189.4033183343061 247.4295002295266 L 189.50378133064362 247.59974701242044 L 189.60424371697977 247.76976931480482 L 189.70470549331452 247.93956713667973 L 189.8051666596479 248.1091404780452 L 189.90562721597985 248.27848933890118 L 190.00608716231045 248.44761371924767 L 190.10654649863966 248.6165136190847 L 190.2070052249675 248.7851890384123 L 190.30746334129395 248.95363997723047 L 190.40792084761898 249.12186643553912 L 190.50837774394267 249.2898684133383 L 190.60883403026494 249.45764591062803 L 190.70928970658585 249.6251989274083 L 190.8097447729054 249.79252746367914 L 190.9101992292235 249.9596315194405 L 191.01065307554026 250.12651109469232 L 191.11110631185562 250.29316618943477 L 191.2115589381696 250.45959680366775 L 191.3120109544822 250.62580293739126 L 191.41246236079343 250.7917845906053 L 191.51291315710327 250.95754176330988 L 191.6133633434117 251.12307445550493 L 191.71381291971872 251.2883826671906 L 191.8142618860244 251.4534663983668 L 191.9147102423287 251.61832564903352 L 192.01515798863164 251.78296041919077 L 192.11560512493315 251.94737070883855 L 192.21605165123327 252.11155651797688 L 192.31649756753202 252.27551784660577 L 192.41694287382938 252.43925469472518 L 192.51738757012538 252.60276706233515 L 192.61783165642 252.76605494943556 L 192.71827513271322 252.9291183560266 L 192.81871799900503 253.09195728210818 L 192.91916025529545 253.2545717276803 L 193.01960190158454 253.41696169274292 L 193.12004293787223 253.57912717729607 L 193.22048336415853 253.74106818133976 L 193.32092318044343 253.902784704874 L 193.42136238672694 254.0642767478988 L 193.5218009830091 254.2255443104141 L 193.62223896928984 254.38658739241998 L 193.72267634556923 254.54740599391633 L 193.82311311184722 254.70800011490326 L 193.9235492681238 254.86836975538074 L 194.02398481439903 255.02851491534872 L 194.12441975067284 255.1884355948073 L 194.2248540769453 255.34813179375632 L 194.32528779321638 255.50760351219594 L 194.42572089948607 255.6668507501261 L 194.52615339575433 255.82587350754682 L 194.62658528202124 255.98467178445802 L 194.72701655828678 256.1432455808598 L 194.82744722455092 256.3015948967521 L 194.9278772808137 256.4597197321349 L 195.0283067270751 256.6176200870083 L 195.12873556333506 256.7752959613722 L 195.22916378959363 256.93274735522664 L 195.32959140585086 257.0899742685716 L 195.4300184121067 257.2469767014071 L 195.53044480836118 257.4037546537332 L 195.63087059461427 257.5603081255498 L 195.73129577086593 257.71663711685693 L 195.8317203371162 257.8727416276546 L 195.93214429336513 258.0286216579428 L 196.03256763961267 258.18427720772155 L 196.1329903758588 258.33970827699085 L 196.23341250210356 258.4949148657507 L 196.33383401834695 258.649896974001 L 196.4342549245889 258.8046546017419 L 196.53467522082954 258.9591877489733 L 196.63509490706878 259.1134964156953 L 196.73551398330662 259.2675806019078 L 196.83593244954307 259.42144030761085 L 196.93635030577815 259.5750755328044 L 197.0367675520118 259.7284862774885 L 197.1371841882441 259.8816725416632 L 197.23760021447504 260.0346343253284 L 197.33801563070458 260.18737162848413 L 197.43843043693272 260.3398844511304 L 197.53884463315947 260.4921727932672 L 197.63925821938486 260.6442366548945 L 197.73967119560885 260.7960760360124 L 197.84008356183148 260.9476909366208 L 197.9404953180527 261.0990813567198 L 198.04090646427252 261.2502472963092 L 198.14131700049097 261.4011887553893 L 198.24172692670805 261.55190573395987 L 198.34213624292374 261.7023982320209 L 198.44254494913807 261.8526662495726 L 198.54295304535097 262.00270978661473 L 198.6433605315625 262.1525288431474 L 198.74376740777265 262.3021234191707 L 198.84417367398143 262.4514935146845 L 198.94457933018882 262.60063912968883 L 199.04498437639484 262.7495602641837 L 199.1453888125994 262.89825691816907 L 199.24579263880267 263.046729091645 L 199.34619585500448 263.19497678461147 L 199.44659846120496 263.3429999970685 L 199.54700045740404 263.49079872901603 L 199.64740184360173 263.6383729804541 L 199.74780261979802 263.7857227513827 L 199.84820278599292 263.9328480418019 L 199.9486023421865 264.0797488517116 L 200.04900128837863 264.22642518111184 L 200.1493996245694 264.37287703000254 L 200.24979735075883 264.5191043983839 L 200.3501944669468 264.6651072862557 L 200.4505909731334 264.8108856936181 L 200.55098686931865 264.95643962047103 L 200.6513821555025 265.1017690668145 L 200.75177683168496 265.24687403264846 L 200.85217089786605 265.39175451797297 L 200.95256435404573 265.53641052278806 L 201.05295720022403 265.6808420470937 L 201.15334943640096 265.8250490908898 L 201.2537410625765 265.96903165417643 L 201.35413207875067 266.1127897369537 L 201.45452248492342 266.25632333922147 L 201.55491228109483 266.3996324609797 L 201.65530146726485 266.5427171022286 L 201.75569004343348 266.6855772629679 L 201.85607800960068 266.82821294319785 L 201.95646536576655 266.97062414291827 L 202.05685211193102 267.11281086212927 L 202.1572382480941 267.2547731008308 L 202.25762377425582 267.3965108590229 L 202.35800869041614 267.5380241367054 L 202.45839299657507 267.6793129338786 L 202.55877669273264 267.82037725054226 L 202.6591597788888 267.9612170866965 L 202.75954225504358 268.1018324423412 L 202.85992412119697 268.2422233174765 L 202.960305377349 268.3823897121023 L 203.0606860234996 268.52233162621866 L 203.16106605964885 268.66204905982556 L 203.2614454857967 268.801542012923 L 203.3618243019432 268.94081048551095 L 203.46220250808827 269.07985447758944 L 203.56258010423198 269.2186739891585 L 203.6629570903743 269.3572690202181 L 203.76333346651526 269.4956395707682 L 203.8637092326548 269.63378564080887 L 203.96408438879294 269.77170723034 L 204.06445893492975 269.90940433936174 L 204.16483287106513 270.046876967874 L 204.26520619719915 270.18412511587684 L 204.3655789133318 270.3211487833702 L 204.46595101946303 270.457947970354 L 204.5663225155929 270.59452267682843 L 204.66669340172137 270.7308729027934 L 204.76706367784848 270.8669986482489 L 204.8674333439742 271.00289991319494 L 204.96780240009852 271.13857669763144 L 205.06817084622148 271.2740290015586 L 205.168538682343 271.4092568249762 L 205.26890590846318 271.5442601678844 L 205.36927252458196 271.6790390302831 L 205.46963853069937 271.81359341217234 L 205.5700039268154 271.9479233135521 L 205.67036871293 272.0820287344224 L 205.77073288904327 272.2159096747833 L 205.87109645515514 272.3495661346347 L 205.9714594112656 272.48299811397663 L 206.0718217573747 272.61620561280904 L 206.1721834934824 272.7491886311321 L 206.27254461958873 272.88194716894566 L 206.37290513569368 273.0144812262497 L 206.47326504179725 273.1467908030444 L 206.57362433789942 273.2788758993295 L 206.67398302400022 273.41073651510516 L 206.77434110009963 273.5423726503714 L 206.87469856619765 273.67378430512815 L 206.97505542229428 273.80497147937547 L 207.07541166838953 273.93593417311337 L 207.1757673044834 274.0666723863417 L 207.2761223305759 274.1971861190606 L 207.37647674666698 274.32747537127005 L 207.4768305527567 274.45754014297006 L 207.57718374884502 274.5873804341606 L 207.67753633493197 274.71699624484165 L 207.77788831101753 274.84638757501324 L 207.8782396771017 274.97555442467535 L 207.9785904331845 275.10449679382805 L 208.07894057926592 275.23321468247127 L 208.1792901153459 275.361708090605 L 208.27963904142456 275.4899770182293 L 208.37998735750182 275.6180214653441 L 208.48033506357768 275.7458414319495 L 208.58068215965218 275.8734369180454 L 208.6810286457253 276.00080792363184 L 208.781374521797 276.12795444870875 L 208.88171978786733 276.2548764932763 L 208.98206444393628 276.3815740573343 L 209.08240849000384 276.5080471408829 L 209.18275192607004 276.63429574392205 L 209.28309475213484 276.7603198664517 L 209.38343696819825 276.8861195084719 L 209.48377857426024 277.0116946699826 L 209.5841195703209 277.1370453509839 L 209.68445995638015 277.2621715514757 L 209.78479973243802 277.38707327145806 L 209.88513889849452 277.51175051093094 L 209.98547745454962 277.63620326989434 L 210.08581540060334 277.7604315483483 L 210.18615273665566 277.88443534629283 L 210.2864894627066 278.00821466372787 L 210.38682557875617 278.1317695006534 L 210.48716108480437 278.25509985706947 L 210.58749598085117 278.37820573297614 L 210.68783026689658 278.50108712837334 L 210.78816394294063 278.62374404326107 L 210.88849700898325 278.74617647763927 L 210.98882946502454 278.86838443150805 L 211.0891613110644 278.9903679048674 L 211.1894925471029 279.11212689771725 L 211.28982317314 279.23366141005766 L 211.39015318917572 279.3549714418886 L 211.49048259521007 279.47605699321 L 211.590811391243 279.5969180640221 L 211.69113957727458 279.71755465432466 L 211.79146715330475 279.8379667641177 L 211.89179411933355 279.95815439340134 L 211.992120475361 280.0781175421755 L 212.092446221387 280.1978562104402 L 212.19277135741166 280.3173703981954 L 212.29309588343492 280.4366601054412 L 212.39341979945678 280.55572533217753 L 212.49374310547728 280.6745660784043 L 212.59406580149638 280.7931823441217 L 212.69438788751413 280.91157412932967 L 212.79470936353047 281.0297414340281 L 212.89503022954543 281.1476842582171 L 212.995350485559 281.26540260189665 L 213.09567013157118 281.38289646506666 L 213.19598916758198 281.5001658477273 L 213.29630759359142 281.61721074987844 L 213.39662540959944 281.73403117152014 L 213.49694261560612 281.8506271126524 L 213.59725921161134 281.9669985732751 L 213.69757519761524 282.08314555338836 L 213.79789057361774 282.19906805299223 L 213.89820533961884 282.3147660720866 L 213.99851949561858 282.4302396106715 L 214.09883304161693 282.5454886687469 L 214.19914597761388 282.6605132463129 L 214.29945830360947 282.7753133433694 L 214.3997700196036 282.8898889599165 L 214.50008112559644 283.00424009595406 L 214.60039162158785 283.1183667514822 L 214.7007015075779 283.23226892650086 L 214.80101078356654 283.34594662101006 L 214.90131944955382 283.4593998350098 L 215.00162750553972 283.5726285685001 L 215.1019349515242 283.6856328214809 L 215.20224178750732 283.7984125939522 L 215.30254801348906 283.9109678859141 L 215.4028536294694 284.02329869736656 L 215.50315863544836 284.1354050283095 L 215.60346303142595 284.247286878743 L 215.7037668174021 284.358944248667 L 215.80406999337694 284.4703771380816 L 215.90437255935035 284.5815855469867 L 216.0046745153224 284.69256947538236 L 216.10497586129304 284.80332892326857 L 216.20527659726233 284.9138638906453 L 216.30557672323022 285.0241743775125 L 216.40587623919672 285.1342603838703 L 216.50617514516182 285.2441219097186 L 216.60647344112556 285.3537589550575 L 216.7067711270879 285.46317151988694 L 216.80706820304886 285.57235960420684 L 216.90736466900844 285.6813232080173 L 217.00766052496664 285.7900623313183 L 217.10795577092347 285.8985769741099 L 217.2082504068789 286.006867136392 L 217.30854443283295 286.11493281816456 L 217.4088378487856 286.2227740194278 L 217.50913065473688 286.3303907401815 L 217.60942285068677 286.4377829804257 L 217.70971443663527 286.5449507401605 L 217.81000541258237 286.65189401938585 L 217.9102957785281 286.75861281810165 L 218.01058553447245 286.86510713630804 L 218.11087468041544 286.97137697400495 L 218.21116321635702 287.07742233119245 L 218.31145114229722 287.1832432078705 L 218.41173845823604 287.28883960403897 L 218.51202516417345 287.39421151969805 L 218.6123112601095 287.49935895484765 L 218.71259674604414 287.6042819094878 L 218.81288162197743 287.7089803836185 L 218.91316588790932 287.8134543772397 L 219.01344954383984 287.91770389035145 L 219.11373258976894 288.02172892295374 L 219.2140150256967 288.1255294750466 L 219.31429685162306 288.22910554662997 L 219.41457806754804 288.3324571377039 L 219.51485867347162 288.4355842482683 L 219.61513866939382 288.5384868783233 L 219.71541805531464 288.64116502786885 L 219.81569683123408 288.7436186969049 L 219.9159749971521 288.8458478854315 L 220.01625255306877 288.9478525934486 L 220.11652949898405 289.0496328209563 L 220.21680583489794 289.1511885679545 L 220.31708156081044 289.2525198344432 L 220.41735667672157 289.3536266204225 L 220.51763118263133 289.4545089258923 L 220.61790507853968 289.55516675085266 L 220.71817836444663 289.65560009530356 L 220.81845104035222 289.755808959245 L 220.91872310625644 289.855793342677 L 221.01899456215924 289.9555532455995 L 221.1192654080607 290.05508866801244 L 221.21953564396074 290.154399609916 L 221.31980526985942 290.2534860713102 L 221.4200742857567 290.3523480521948 L 221.5203426916526 290.45098555257005 L 221.6206104875471 290.54939857243573 L 221.72087767344024 290.647587111792 L 221.82114424933198 290.7455511706388 L 221.92141021522235 290.84329074897613 L 222.0216755711113 290.94080584680404 L 222.1219403169989 291.0380964641224 L 222.2222044528851 291.1351626009313 L 222.3224679787699 291.23200425723087 L 222.42273089465337 291.3286214330209 L 222.5229932005354 291.4250141283014 L 222.62325489641609 291.52118234307255 L 222.72351598229537 291.61712607733415 L 222.82377645817326 291.7128453310863 L 222.92403632404978 291.80834010432903 L 223.0242955799249 291.90361039706227 L 223.12455422579865 291.9986562092861 L 223.22481226167102 292.09347754100037 L 223.325069687542 292.18807439220524 L 223.42532650341158 292.28244676290063 L 223.5255827092798 292.37659465308656 L 223.62583830514663 292.47051806276306 L 223.72609329101206 292.56421699193004 L 223.82634766687613 292.65769144058754 L 223.9266014327388 292.7509414087356 L 224.0268545886001 292.84396689637424 L 224.12710713445998 292.93676790350344 L 224.2273590703185 293.02934443012316 L 224.32761039617563 293.1216964762333 L 224.42786111203137 293.2138240418341 L 224.52811121788574 293.3057271269254 L 224.62836071373872 293.39740573150726 L 224.72860959959033 293.4888598555796 L 224.82885787544055 293.5800894991425 L 224.92910554128935 293.67109466219597 L 225.02935259713678 293.76187534473996 L 225.12959904298285 293.8524315467745 L 225.22984487882752 293.9427632682996 L 225.33009010467083 294.03287050931516 L 225.43033472051272 294.12275326982126 L 225.53057872635324 294.21241154981794 L 225.6308221221924 294.30184534930515 L 225.73106490803013 294.39105466828295 L 225.8313070838665 294.4800395067512 L 225.9315486497015 294.56879986471 L 226.0317896055351 294.6573357421594 L 226.13202995136731 294.7456471390993 L 226.2322696871981 294.8337340555297 L 226.33250881302757 294.9215964914507 L 226.43274732885564 295.00923444686214 L 226.53298523468231 295.0966479217642 L 226.6332225305076 295.1838369161568 L 226.7334592163315 295.2708014300399 L 226.83369529215403 295.3575414634136 L 226.9339307579752 295.4440570162778 L 227.03416561379493 295.5303480886325 L 227.1343998596133 295.61641468047776 L 227.23463349543027 295.70225679181357 L 227.33486652124589 295.7878744226399 L 227.4350989370601 295.8732675729568 L 227.53533074287293 295.9584362427642 L 227.6355619386844 296.0433804320621 L 227.73579252449446 296.1281001408506 L 227.83602250030313 296.2125953691297 L 227.93625186611044 296.29686611689925 L 228.03648062191635 296.38091238415933 L 228.13670876772088 296.46473417090994 L 228.236936303524 296.5483314771511 L 228.33716322932574 296.6317043028829 L 228.4373895451261 296.71485264810514 L 228.5376152509251 296.7977765128179 L 228.63784034672273 296.8804758970212 L 228.73806483251894 296.9629508007151 L 228.83828870831377 297.0452012238995 L 228.93851197410723 297.1272271665744 L 229.0387346298993 297.20902862873993 L 229.13895667568997 297.29060561039586 L 229.23917811147925 297.3719581115424 L 229.33939893726716 297.4530861321795 L 229.4396191530537 297.53398967230714 L 229.53983875883884 297.61466873192535 L 229.6400577546226 297.69512331103397 L 229.740276140405 297.7753534096332 L 229.84049391618598 297.855359027723 L 229.9407110819656 297.9351401653033 L 230.04092763774383 298.01469682237416 L 230.14114358352066 298.0940289989356 L 230.24135891929612 298.1731366949874 L 230.34157364507018 298.2520199105299 L 230.44178776084286 298.3306786455629 L 230.54200126661416 298.4091129000864 L 230.64221416238408 298.48732267410054 L 230.7424264481526 298.56530796760507 L 230.84263812391976 298.64306878060023 L 230.94284918968552 298.7206051130859 L 231.0430596454499 298.79791696506214 L 231.14326949121286 298.8750043365289 L 231.24347872697447 298.95186722748616 L 231.34368735273472 299.02850563793396 L 231.44389536849354 299.10491956787234 L 231.544102774251 299.18110901730125 L 231.6443095700071 299.2570739862207 L 231.74451575576177 299.3328144746307 L 231.84472133151507 299.40833048253114 L 231.944926297267 299.4836220099222 L 232.04513065301754 299.5586890568038 L 232.1453343987667 299.63353162317594 L 232.24553753451445 299.70814970903865 L 232.34574006026085 299.7825433143918 L 232.44594197600583 299.85671243923554 L 232.54614328174944 299.9306570835698 L 232.64634397749165 300.00437724739464 L 232.7465440632325 300.07787293071 L 232.84674353897196 300.1511441335158 L 232.94694240471003 300.22419085581225 L 233.04714066044673 300.29701309759923 L 233.14733830618204 300.36961085887674 L 233.24753534191595 300.4419841396448 L 233.34773176764847 300.51413293990333 L 233.44792758337962 300.5860572596524 L 233.5481227891094 300.65775709889203 L 233.64831738483778 300.72923245762223 L 233.74851137056478 300.80048333584296 L 233.8487047462904 300.87150973355426 L 233.94889751201464 300.942311650756 L 234.0490896677375 301.01288908744834 L 234.14928121345895 301.08324204363123 L 234.24947214917904 301.15337051930464 L 234.3496624748977 301.2232745144686 L 234.44985219061505 301.292954029123 L 234.55004129633096 301.36240906326805 L 234.65022979204548 301.43163961690357 L 234.75041767775863 301.50064569002967 L 234.8506049534704 301.5694272826463 L 234.9507916191808 301.6379843947535 L 235.0509776748898 301.70631702635114 L 235.15116312059743 301.7744251774394 L 235.25134795630365 301.8423088480182 L 235.3515321820085 301.9099680380875 L 235.45171579771198 301.9774027476474 L 235.55189880341402 302.0446129766977 L 235.65208119911472 302.11159872523865 L 235.75226298481405 302.1783599932701 L 235.85244416051196 302.2448967807921 L 235.9526247262085 302.3112090878047 L 236.05280468190367 302.3772969143077 L 236.15298402759745 302.4431602603013 L 236.25316276328985 302.50879912578546 L 236.35334088898085 302.57421351076016 L 236.45351840467046 302.6394034152254 L 236.5536953103587 302.70436883918114 L 236.65387160604556 302.7691097826274 L 236.754047291731 302.83362624556423 L 236.85422236741508 302.8979182279916 L 236.9543968330978 302.96198572990954 L 237.0545706887791 303.025828751318 L 237.15474393445905 303.0894472922169 L 237.2549165701376 303.15284135260646 L 237.35508859581475 303.21601093248654 L 237.45526001149054 303.2789560318571 L 237.55543081716493 303.3416766507182 L 237.6556010128379 303.4041727890699 L 237.7557705985095 303.4664444469121 L 237.85593957417976 303.52849162424485 L 237.95610793984864 303.59031432106815 L 238.0562756955161 303.651912537382 L 238.15644284118218 303.7132862731863 L 238.25660937684688 303.77443552848115 L 238.35677530251021 303.8353603032666 L 238.45694061817215 303.89606059754254 L 238.5571053238327 303.95653641130906 L 238.65726941949185 304.0167877445661 L 238.75743290514964 304.07681459731367 L 238.857595780806 304.13661696955177 L 238.957758046461 304.19619486128045 L 239.05791970211465 304.2555482724996 L 239.1580807477669 304.3146772032093 L 239.25824118341774 304.37358165340964 L 239.35840100906722 304.4322616231004 L 239.4585602247153 304.49071711228174 L 239.558718830362 304.5489481209536 L 239.65887682600734 304.606954649116 L 239.75903421165125 304.66473669676895 L 239.8591909872938 304.72229426391243 L 239.95934715293498 304.77962735054643 L 240.05950270857477 304.836735956671 L 240.15965765421316 304.89362008228613 L 240.25981198985016 304.9502797273918 L 240.3599657154858 305.0067148919879 L 240.46011883112004 305.0629255760746 L 240.56027133675292 305.11891177965185 L 240.66042323238437 305.17467350271966 L 240.7605745180145 305.230210745278 L 240.8607251936432 305.28552350732684 L 240.9608752592705 305.34061178886617 L 241.06102471489643 305.39547558989614 L 241.16117356052098 305.4501149104166 L 241.26132179614416 305.5045297504276 L 241.36146942176595 305.55872010992914 L 241.46161643738634 305.61268598892116 L 241.56176284300537 305.6664273874038 L 241.661908638623 305.71994430537694 L 241.76205382423925 305.77323674284065 L 241.86219839985407 305.8263046997949 L 241.96234236546755 305.8791481762396 L 242.06248572107964 305.93176717217494 L 242.16262846669036 305.98416168760076 L 242.2627706022997 306.03633172251716 L 242.36291212790763 306.0882772769241 L 242.46305304351418 306.13999835082154 L 242.56319334911936 306.19149494420947 L 242.66333304472315 306.242767057088 L 242.76347213032557 306.29381468945707 L 242.86361060592657 306.3446378413167 L 242.9637484715262 306.3952365126668 L 243.06388572712444 306.44561070350744 L 243.1640223727213 306.49576041383864 L 243.26415840831677 306.5456856436604 L 243.3642938339109 306.5953863929727 L 243.4644286495036 306.64486266177556 L 243.56456285509492 306.69411445006887 L 243.6646964506849 306.74314175785275 L 243.76482943627343 306.7919445851272 L 243.8649618118606 306.84052293189217 L 243.96509357744637 306.8888767981477 L 244.0652247330308 306.93700618389374 L 244.16535527861382 306.98491108913026 L 244.26548521419545 307.0325915138574 L 244.3656145397757 307.08004745807506 L 244.46574325535457 307.1272789217833 L 244.56587136093205 307.174285904982 L 244.66599885650817 307.2210684076712 L 244.76612574208286 307.267626429851 L 244.8662520176562 307.3139599715214 L 244.96637768322816 307.36006903268225 L 245.0665027387987 307.4059536133337 L 245.16662718436785 307.4516137134756 L 245.26675101993567 307.4970493331081 L 245.36687424550206 307.54226047223113 L 245.4669968610671 307.58724713084473 L 245.56711886663075 307.6320093089488 L 245.667240262193 307.67654700654344 L 245.76736104775387 307.72086022362856 L 245.86748122331335 307.7649489602043 L 245.96760078887147 307.80881321627055 L 246.06771974442816 307.85245299182736 L 246.1678380899835 307.8958682868747 L 246.26795582553743 307.9390591014125 L 246.36807295109 307.9820254354409 L 246.46818946664118 308.0247672889599 L 246.568305372191 308.0672846619693 L 246.66842066773938 308.10957755446935 L 246.7685353532864 308.15164596645985 L 246.86864942883207 308.19348989794094 L 246.9687628943763 308.23510934891254 L 247.0688757499192 308.27650431937474 L 247.16898799546067 308.31767480932746 L 247.26909963100076 308.3586208187707 L 247.36921065653948 308.3993423477044 L 247.46932107207684 308.4398393961287 L 247.56943087761277 308.48011196404354 L 247.66954007314735 308.52016005144895 L 247.76964865868052 308.5599836583449 L 247.86975663421234 308.5995827847313 L 247.96986399974276 308.6389574306083 L 248.06997075527178 308.6781075959758 L 248.1700769007994 308.7170332808339 L 248.27018243632565 308.75573448518253 L 248.37028736185053 308.7942112090216 L 248.47039167737404 308.8324634523513 L 248.57049538289615 308.8704912151715 L 248.67059847841688 308.9082944974823 L 248.7707009639362 308.94587329928356 L 248.87080283945417 308.9832276205754 L 248.97090410497074 309.0203574613577 L 249.07100476048592 309.0572628216306 L 249.17110480599973 309.0939437013941 L 249.27120424151212 309.13040010064805 L 249.37130306702315 309.1666320193926 L 249.47140128253278 309.2026394576276 L 249.57149888804105 309.23842241535317 L 249.67159588354795 309.2739808925693 L 249.77169226905343 309.309314889276 L 249.87178804455755 309.3444244054732 L 249.97188321006024 309.37930944116084 L 250.0719777655616 309.4139699963391 L 250.17207171106156 309.448406071008 L 250.27216504656013 309.4826176651673 L 250.3722577720573 309.5166047788172 L 250.47234988755312 309.5503674119576 L 250.57244139304754 309.5839055645885 L 250.67253228854054 309.61721923671007 L 250.7726225740322 309.6503084283221 L 250.87271224952246 309.68317313942464 L 250.97280131501134 309.71581337001777 L 251.07288977049885 309.74822912010137 L 251.17297761598496 309.78042038967556 L 251.27306485146966 309.81238717874027 L 251.373151476953 309.84412948729556 L 251.47323749243498 309.8756473153413 L 251.57332289791555 309.9069406628776 L 251.67340769339475 309.9380095299045" stroke-miterlimit="10" stroke-dasharray=""/><path fill="none" stroke="rgb(0,255,0)" paint-order="fill stroke markers" d=" M 250 102 L 190 102" stroke-miterlimit="10" stroke-width="4" stroke-dasharray=""/><path fill="none" stroke="rgb(128,128,128)" paint-order="fill stroke markers" d=" M 250 100 L 190 100" stroke-opacity="255" stroke-miterlimit="10" stroke-width="2" stroke-dasharray=""/><path fill="none" stroke="rgb(255,255,128)" paint-order="fill stroke markers" d=" M 246.62109119220844 100 L 246.62109119220986 308.0895836022888" stroke-miterlimit="10" stroke-dasharray=""/><path fill="none" stroke="rgb(255,255,128)" paint-order="fill stroke markers" d=" M 239.8632735766253 100 L 239.86327357662591 304.72463128877564" stroke-miterlimit="10" stroke-dasharray=""/><path fill="none" stroke="rgb(255,255,128)" paint-order="fill stroke markers" d=" M 233.10545596104217 100 L 233.10545596104203 300.33926519093745" stroke-miterlimit="10" stroke-dasharray=""/><path fill="none" stroke="rgb(255,255,128)" paint-order="fill stroke markers" d=" M 226.34763834545902 100 L 226.34763834545808 294.9348241543053" stroke-miterlimit="10" stroke-dasharray=""/><path fill="none" stroke="rgb(255,255,128)" paint-order="fill stroke markers" d=" M 219.5898207298759 100 L 219.5898207298742 288.51250679589356" stroke-miterlimit="10" stroke-dasharray=""/><path fill="none" stroke="rgb(255,255,128)" paint-order="fill stroke markers" d=" M 212.83200311429277 100 L 212.83200311429027 281.0735860544032" stroke-miterlimit="10" stroke-dasharray=""/><path fill="none" stroke="rgb(255,255,128)" paint-order="fill stroke markers" d=" M 206.07418549870962 100 L 206.07418549871 272.6193376576691" stroke-miterlimit="10" stroke-dasharray=""/><path fill="none" stroke="rgb(255,255,128)" paint-order="fill stroke markers" d=" M 199.3163678831265 100 L 199.31636788312608 263.15093508774424" stroke-miterlimit="10" stroke-dasharray=""/><path fill="none" stroke="rgb(255,255,128)" paint-order="fill stroke markers" d=" M 192.55855026754335 100 L 192.55855026754216 252.66968359403415" stroke-miterlimit="10" stroke-dasharray=""/><path fill="none" stroke="rgb(255,255,128)" paint-order="fill stroke markers" d=" M 246.62109119220986 308.0895836022888 L 497.2950682401692 64.34075868070161" stroke-miterlimit="10" stroke-dasharray=""/><path fill="none" stroke="rgb(255,255,128)" paint-order="fill stroke markers" d=" M 239.86327357662591 304.72463128877564 L 532.6354803209026 132.79701237288256" stroke-miterlimit="10" stroke-dasharray=""/><path fill="none" stroke="rgb(255,255,128)" paint-order="fill stroke markers" d=" M 233.10545596104203 300.33926519093745 L 545.1449656458965 198.04805802632" stroke-miterlimit="10" stroke-dasharray=""/><path fill="none" stroke="rgb(255,255,128)" paint-order="fill stroke markers" d=" M 226.34763834545808 294.9348241543053 L 539.731394438044 252.70863617029138" stroke-miterlimit="10" stroke-dasharray=""/><path fill="none" stroke="rgb(255,255,128)" paint-order="fill stroke markers" d=" M 219.5898207298742 288.51250679589356 L 522.5245205844982 296.33423143314405" stroke-miterlimit="10" stroke-dasharray=""/><path fill="none" stroke="rgb(255,255,128)" paint-order="fill stroke markers" d=" M 212.83200311429027 281.0735860544032 L 497.9297395321669 327.4115169699585" stroke-miterlimit="10" stroke-dasharray=""/><path fill="none" stroke="rgb(255,255,128)" paint-order="fill stroke markers" d=" M 206.07418549871 272.6193376576691 L 469.2107190672959 347.6581362484657" stroke-miterlimit="10" stroke-dasharray=""/><path fill="none" stroke="rgb(255,255,128)" paint-order="fill stroke markers" d=" M 199.31636788312608 263.15093508774424 L 438.3374778964089 358.67054845498427" stroke-miterlimit="10" stroke-dasharray=""/><path fill="none" stroke="rgb(255,255,128)" paint-order="fill stroke markers" d=" M 192.55855026754216 252.66968359403415 L 406.91249327397986 360.974648739257" stroke-miterlimit="10" stroke-dasharray=""/><path fill="none" stroke="rgb(168,168,168)" paint-order="fill stroke markers" d=" M 188.49811922926216 245.885453755855 L 188.4991239172062 245.88717756055635 L 188.59959240355616 246.05944466803533 L 188.70006027990473 246.2314872950049 L 188.80052754625194 246.40330544146497 L 188.90099420259776 246.57489910741555 L 189.0014602489422 246.74626829285668 L 189.10192568528527 246.9174129977884 L 189.20239051162696 247.08833322221062 L 189.30285472796723 247.25902896612337 L 189.4033183343061 247.4295002295266 L 189.50378133064362 247.59974701242044 L 189.60424371697977 247.76976931480482 L 189.70470549331452 247.93956713667973 L 189.8051666596479 248.1091404780452 L 189.90562721597985 248.27848933890118 L 190.00608716231045 248.44761371924767 L 190.10654649863966 248.6165136190847 L 190.2070052249675 248.7851890384123 L 190.30746334129395 248.95363997723047 L 190.40792084761898 249.12186643553912 L 190.50837774394267 249.2898684133383 L 190.60883403026494 249.45764591062803 L 190.70928970658585 249.6251989274083 L 190.8097447729054 249.79252746367914 L 190.9101992292235 249.9596315194405 L 191.01065307554026 250.12651109469232 L 191.11110631185562 250.29316618943477 L 191.2115589381696 250.45959680366775 L 191.3120109544822 250.62580293739126 L 191.41246236079343 250.7917845906053 L 191.51291315710327 250.95754176330988 L 191.6133633434117 251.12307445550493 L 191.71381291971872 251.2883826671906 L 191.8142618860244 251.4534663983668 L 191.9147102423287 251.61832564903352 L 192.01515798863164 251.78296041919077 L 192.11560512493315 251.94737070883855 L 192.21605165123327 252.11155651797688 L 192.31649756753202 252.27551784660577 L 192.41694287382938 252.43925469472518 L 192.51738757012538 252.60276706233515 L 192.61783165642 252.76605494943556 L 192.71827513271322 252.9291183560266 L 192.81871799900503 253.09195728210818 L 192.91916025529545 253.2545717276803 L 193.01960190158454 253.41696169274292 L 193.12004293787223 253.57912717729607 L 193.22048336415853 253.74106818133976 L 193.32092318044343 253.902784704874 L 193.42136238672694 254.0642767478988 L 193.5218009830091 254.2255443104141 L 193.62223896928984 254.38658739241998 L 193.72267634556923 254.54740599391633 L 193.82311311184722 254.70800011490326 L 193.9235492681238 254.86836975538074 L 194.02398481439903 255.02851491534872 L 194.12441975067284 255.1884355948073 L 194.2248540769453 255.34813179375632 L 194.32528779321638 255.50760351219594 L 194.42572089948607 255.6668507501261 L 194.52615339575433 255.82587350754682 L 194.62658528202124 255.98467178445802 L 194.72701655828678 256.1432455808598 L 194.82744722455092 256.3015948967521 L 194.9278772808137 256.4597197321349 L 195.0283067270751 256.6176200870083 L 195.12873556333506 256.7752959613722 L 195.22916378959363 256.93274735522664 L 195.32959140585086 257.0899742685716 L 195.4300184121067 257.2469767014071 L 195.53044480836118 257.4037546537332 L 195.63087059461427 257.5603081255498 L 195.73129577086593 257.71663711685693 L 195.8317203371162 257.8727416276546 L 195.93214429336513 258.0286216579428 L 196.03256763961267 258.18427720772155 L 196.1329903758588 258.33970827699085 L 196.23341250210356 258.4949148657507 L 196.33383401834695 258.649896974001 L 196.4342549245889 258.8046546017419 L 196.53467522082954 258.9591877489733 L 196.63509490706878 259.1134964156953 L 196.73551398330662 259.2675806019078 L 196.83593244954307 259.42144030761085 L 196.93635030577815 259.5750755328044 L 197.0367675520118 259.7284862774885 L 197.1371841882441 259.8816725416632 L 197.23760021447504 260.0346343253284 L 197.33801563070458 260.18737162848413 L 197.43843043693272 260.3398844511304 L 197.53884463315947 260.4921727932672 L 197.63925821938486 260.6442366548945 L 197.73967119560885 260.7960760360124 L 197.84008356183148 260.9476909366208 L 197.9404953180527 261.0990813567198 L 198.04090646427252 261.2502472963092 L 198.14131700049097 261.4011887553893 L 198.24172692670805 261.55190573395987 L 198.34213624292374 261.7023982320209 L 198.44254494913807 261.8526662495726 L 198.54295304535097 262.00270978661473 L 198.6433605315625 262.1525288431474 L 198.74376740777265 262.3021234191707 L 198.84417367398143 262.4514935146845 L 198.94457933018882 262.60063912968883 L 199.04498437639484 262.7495602641837 L 199.1453888125994 262.89825691816907 L 199.24579263880267 263.046729091645 L 199.34619585500448 263.19497678461147 L 199.44659846120496 263.3429999970685 L 199.54700045740404 263.49079872901603 L 199.64740184360173 263.6383729804541 L 199.74780261979802 263.7857227513827 L 199.84820278599292 263.9328480418019 L 199.9486023421865 264.0797488517116 L 200.04900128837863 264.22642518111184 L 200.1493996245694 264.37287703000254 L 200.24979735075883 264.5191043983839 L 200.3501944669468 264.6651072862557 L 200.4505909731334 264.8108856936181 L 200.55098686931865 264.95643962047103 L 200.6513821555025 265.1017690668145 L 200.75177683168496 265.24687403264846 L 200.85217089786605 265.39175451797297 L 200.95256435404573 265.53641052278806 L 201.05295720022403 265.6808420470937 L 201.15334943640096 265.8250490908898 L 201.2537410625765 265.96903165417643 L 201.35413207875067 266.1127897369537 L 201.45452248492342 266.25632333922147 L 201.55491228109483 266.3996324609797 L 201.65530146726485 266.5427171022286 L 201.75569004343348 266.6855772629679 L 201.85607800960068 266.82821294319785 L 201.95646536576655 266.97062414291827 L 202.05685211193102 267.11281086212927 L 202.1572382480941 267.2547731008308 L 202.25762377425582 267.3965108590229 L 202.35800869041614 267.5380241367054 L 202.45839299657507 267.6793129338786 L 202.55877669273264 267.82037725054226 L 202.6591597788888 267.9612170866965 L 202.75954225504358 268.1018324423412 L 202.85992412119697 268.2422233174765 L 202.960305377349 268.3823897121023 L 203.0606860234996 268.52233162621866 L 203.16106605964885 268.66204905982556 L 203.2614454857967 268.801542012923 L 203.3618243019432 268.94081048551095 L 203.46220250808827 269.07985447758944 L 203.56258010423198 269.2186739891585 L 203.6629570903743 269.3572690202181 L 203.76333346651526 269.4956395707682 L 203.8637092326548 269.63378564080887 L 203.96408438879294 269.77170723034 L 204.06445893492975 269.90940433936174 L 204.16483287106513 270.046876967874 L 204.26520619719915 270.18412511587684 L 204.3655789133318 270.3211487833702 L 204.46595101946303 270.457947970354 L 204.5663225155929 270.59452267682843 L 204.66669340172137 270.7308729027934 L 204.76706367784848 270.8669986482489 L 204.8674333439742 271.00289991319494 L 204.96780240009852 271.13857669763144 L 205.06817084622148 271.2740290015586 L 205.168538682343 271.4092568249762 L 205.26890590846318 271.5442601678844 L 205.36927252458196 271.6790390302831 L 205.46963853069937 271.81359341217234 L 205.5700039268154 271.9479233135521 L 205.67036871293 272.0820287344224 L 205.77073288904327 272.2159096747833 L 205.87109645515514 272.3495661346347 L 205.9714594112656 272.48299811397663 L 206.0718217573747 272.61620561280904 L 206.1721834934824 272.7491886311321 L 206.27254461958873 272.88194716894566 L 206.37290513569368 273.0144812262497 L 206.47326504179725 273.1467908030444 L 206.57362433789942 273.2788758993295 L 206.67398302400022 273.41073651510516 L 206.77434110009963 273.5423726503714 L 206.87469856619765 273.67378430512815 L 206.97505542229428 273.80497147937547 L 207.07541166838953 273.93593417311337 L 207.1757673044834 274.0666723863417 L 207.2761223305759 274.1971861190606 L 207.37647674666698 274.32747537127005 L 207.4768305527567 274.45754014297006 L 207.57718374884502 274.5873804341606 L 207.67753633493197 274.71699624484165 L 207.77788831101753 274.84638757501324 L 207.8782396771017 274.97555442467535 L 207.9785904331845 275.10449679382805 L 208.07894057926592 275.23321468247127 L 208.1792901153459 275.361708090605 L 208.27963904142456 275.4899770182293 L 208.37998735750182 275.6180214653441 L 208.48033506357768 275.7458414319495 L 208.58068215965218 275.8734369180454 L 208.6810286457253 276.00080792363184 L 208.781374521797 276.12795444870875 L 208.88171978786733 276.2548764932763 L 208.98206444393628 276.3815740573343 L 209.08240849000384 276.5080471408829 L 209.18275192607004 276.63429574392205 L 209.28309475213484 276.7603198664517 L 209.38343696819825 276.8861195084719 L 209.48377857426024 277.0116946699826 L 209.5841195703209 277.1370453509839 L 209.68445995638015 277.2621715514757 L 209.78479973243802 277.38707327145806 L 209.88513889849452 277.51175051093094 L 209.98547745454962 277.63620326989434 L 210.08581540060334 277.7604315483483 L 210.18615273665566 277.88443534629283 L 210.2864894627066 278.00821466372787 L 210.38682557875617 278.1317695006534 L 210.48716108480437 278.25509985706947 L 210.58749598085117 278.37820573297614 L 210.68783026689658 278.50108712837334 L 210.78816394294063 278.62374404326107 L 210.88849700898325 278.74617647763927 L 210.98882946502454 278.86838443150805 L 211.0891613110644 278.9903679048674 L 211.1894925471029 279.11212689771725 L 211.28982317314 279.23366141005766 L 211.39015318917572 279.3549714418886 L 211.49048259521007 279.47605699321 L 211.590811391243 279.5969180640221 L 211.69113957727458 279.71755465432466 L 211.79146715330475 279.8379667641177 L 211.89179411933355 279.95815439340134 L 211.992120475361 280.0781175421755 L 212.092446221387 280.1978562104402 L 212.19277135741166 280.3173703981954 L 212.29309588343492 280.4366601054412 L 212.39341979945678 280.55572533217753 L 212.49374310547728 280.6745660784043 L 212.59406580149638 280.7931823441217 L 212.69438788751413 280.91157412932967 L 212.79470936353047 281.0297414340281 L 212.89503022954543 281.1476842582171 L 212.995350485559 281.26540260189665 L 213.09567013157118 281.38289646506666 L 213.19598916758198 281.5001658477273 L 213.29630759359142 281.61721074987844 L 213.39662540959944 281.73403117152014 L 213.49694261560612 281.8506271126524 L 213.59725921161134 281.9669985732751 L 213.69757519761524 282.08314555338836 L 213.79789057361774 282.19906805299223 L 213.89820533961884 282.3147660720866 L 213.99851949561858 282.4302396106715 L 214.09883304161693 282.5454886687469 L 214.19914597761388 282.6605132463129 L 214.29945830360947 282.7753133433694 L 214.3997700196036 282.8898889599165 L 214.50008112559644 283.00424009595406 L 214.60039162158785 283.1183667514822 L 214.7007015075779 283.23226892650086 L 214.80101078356654 283.34594662101006 L 214.90131944955382 283.4593998350098 L 215.00162750553972 283.5726285685001 L 215.1019349515242 283.6856328214809 L 215.20224178750732 283.7984125939522 L 215.30254801348906 283.9109678859141 L 215.4028536294694 284.02329869736656 L 215.50315863544836 284.1354050283095 L 215.60346303142595 284.247286878743 L 215.7037668174021 284.358944248667 L 215.80406999337694 284.4703771380816 L 215.90437255935035 284.5815855469867 L 216.0046745153224 284.69256947538236 L 216.10497586129304 284.80332892326857 L 216.20527659726233 284.9138638906453 L 216.30557672323022 285.0241743775125 L 216.40587623919672 285.1342603838703 L 216.50617514516182 285.2441219097186 L 216.60647344112556 285.3537589550575 L 216.7067711270879 285.46317151988694 L 216.80706820304886 285.57235960420684 L 216.90736466900844 285.6813232080173 L 217.00766052496664 285.7900623313183 L 217.10795577092347 285.8985769741099 L 217.2082504068789 286.006867136392 L 217.30854443283295 286.11493281816456 L 217.4088378487856 286.2227740194278 L 217.50913065473688 286.3303907401815 L 217.60942285068677 286.4377829804257 L 217.70971443663527 286.5449507401605 L 217.81000541258237 286.65189401938585 L 217.9102957785281 286.75861281810165 L 218.01058553447245 286.86510713630804 L 218.11087468041544 286.97137697400495 L 218.21116321635702 287.07742233119245 L 218.31145114229722 287.1832432078705 L 218.41173845823604 287.28883960403897 L 218.51202516417345 287.39421151969805 L 218.6123112601095 287.49935895484765 L 218.71259674604414 287.6042819094878 L 218.81288162197743 287.7089803836185 L 218.91316588790932 287.8134543772397 L 219.01344954383984 287.91770389035145 L 219.11373258976894 288.02172892295374 L 219.2140150256967 288.1255294750466 L 219.31429685162306 288.22910554662997 L 219.41457806754804 288.3324571377039 L 219.51485867347162 288.4355842482683 L 219.61513866939382 288.5384868783233 L 219.71541805531464 288.64116502786885 L 219.81569683123408 288.7436186969049 L 219.9159749971521 288.8458478854315 L 220.01625255306877 288.9478525934486 L 220.11652949898405 289.0496328209563 L 220.21680583489794 289.1511885679545 L 220.31708156081044 289.2525198344432 L 220.41735667672157 289.3536266204225 L 220.51763118263133 289.4545089258923 L 220.61790507853968 289.55516675085266 L 220.71817836444663 289.65560009530356 L 220.81845104035222 289.755808959245 L 220.91872310625644 289.855793342677 L 221.01899456215924 289.9555532455995 L 221.1192654080607 290.05508866801244 L 221.21953564396074 290.154399609916 L 221.31980526985942 290.2534860713102 L 221.4200742857567 290.3523480521948 L 221.5203426916526 290.45098555257005 L 221.6206104875471 290.54939857243573 L 221.72087767344024 290.647587111792 L 221.82114424933198 290.7455511706388 L 221.92141021522235 290.84329074897613 L 222.0216755711113 290.94080584680404 L 222.1219403169989 291.0380964641224 L 222.2222044528851 291.1351626009313 L 222.3224679787699 291.23200425723087 L 222.42273089465337 291.3286214330209 L 222.5229932005354 291.4250141283014 L 222.62325489641609 291.52118234307255 L 222.72351598229537 291.61712607733415 L 222.82377645817326 291.7128453310863 L 222.92403632404978 291.80834010432903 L 223.0242955799249 291.90361039706227 L 223.12455422579865 291.9986562092861 L 223.22481226167102 292.09347754100037 L 223.325069687542 292.18807439220524 L 223.42532650341158 292.28244676290063 L 223.5255827092798 292.37659465308656 L 223.62583830514663 292.47051806276306 L 223.72609329101206 292.56421699193004 L 223.82634766687613 292.65769144058754 L 223.9266014327388 292.7509414087356 L 224.0268545886001 292.84396689637424 L 224.12710713445998 292.93676790350344 L 224.2273590703185 293.02934443012316 L 224.32761039617563 293.1216964762333 L 224.42786111203137 293.2138240418341 L 224.52811121788574 293.3057271269254 L 224.62836071373872 293.39740573150726 L 224.72860959959033 293.4888598555796 L 224.82885787544055 293.5800894991425 L 224.92910554128935 293.67109466219597 L 225.02935259713678 293.76187534473996 L 225.12959904298285 293.8524315467745 L 225.22984487882752 293.9427632682996 L 225.33009010467083 294.03287050931516 L 225.43033472051272 294.12275326982126 L 225.53057872635324 294.21241154981794 L 225.6308221221924 294.30184534930515 L 225.73106490803013 294.39105466828295 L 225.8313070838665 294.4800395067512 L 225.9315486497015 294.56879986471 L 226.0317896055351 294.6573357421594 L 226.13202995136731 294.7456471390993 L 226.2322696871981 294.8337340555297 L 226.33250881302757 294.9215964914507 L 226.43274732885564 295.00923444686214 L 226.53298523468231 295.0966479217642 L 226.6332225305076 295.1838369161568 L 226.7334592163315 295.2708014300399 L 226.83369529215403 295.3575414634136 L 226.9339307579752 295.4440570162778 L 227.03416561379493 295.5303480886325 L 227.1343998596133 295.61641468047776 L 227.23463349543027 295.70225679181357 L 227.33486652124589 295.7878744226399 L 227.4350989370601 295.8732675729568 L 227.53533074287293 295.9584362427642 L 227.6355619386844 296.0433804320621 L 227.73579252449446 296.1281001408506 L 227.83602250030313 296.2125953691297 L 227.93625186611044 296.29686611689925 L 228.03648062191635 296.38091238415933 L 228.13670876772088 296.46473417090994 L 228.236936303524 296.5483314771511 L 228.33716322932574 296.6317043028829 L 228.4373895451261 296.71485264810514 L 228.5376152509251 296.7977765128179 L 228.63784034672273 296.8804758970212 L 228.73806483251894 296.9629508007151 L 228.83828870831377 297.0452012238995 L 228.93851197410723 297.1272271665744 L 229.0387346298993 297.20902862873993 L 229.13895667568997 297.29060561039586 L 229.23917811147925 297.3719581115424 L 229.33939893726716 297.4530861321795 L 229.4396191530537 297.53398967230714 L 229.53983875883884 297.61466873192535 L 229.6400577546226 297.69512331103397 L 229.740276140405 297.7753534096332 L 229.84049391618598 297.855359027723 L 229.9407110819656 297.9351401653033 L 230.04092763774383 298.01469682237416 L 230.14114358352066 298.0940289989356 L 230.24135891929612 298.1731366949874 L 230.34157364507018 298.2520199105299 L 230.44178776084286 298.3306786455629 L 230.54200126661416 298.4091129000864 L 230.64221416238408 298.48732267410054 L 230.7424264481526 298.56530796760507 L 230.84263812391976 298.64306878060023 L 230.94284918968552 298.7206051130859 L 231.0430596454499 298.79791696506214 L 231.14326949121286 298.8750043365289 L 231.24347872697447 298.95186722748616 L 231.34368735273472 299.02850563793396 L 231.44389536849354 299.10491956787234 L 231.544102774251 299.18110901730125 L 231.6443095700071 299.2570739862207 L 231.74451575576177 299.3328144746307 L 231.84472133151507 299.40833048253114 L 231.944926297267 299.4836220099222 L 232.04513065301754 299.5586890568038 L 232.1453343987667 299.63353162317594 L 232.24553753451445 299.70814970903865 L 232.34574006026085 299.7825433143918 L 232.44594197600583 299.85671243923554 L 232.54614328174944 299.9306570835698 L 232.64634397749165 300.00437724739464 L 232.7465440632325 300.07787293071 L 232.84674353897196 300.1511441335158 L 232.94694240471003 300.22419085581225 L 233.04714066044673 300.29701309759923 L 233.14733830618204 300.36961085887674 L 233.24753534191595 300.4419841396448 L 233.34773176764847 300.51413293990333 L 233.44792758337962 300.5860572596524 L 233.5481227891094 300.65775709889203 L 233.64831738483778 300.72923245762223 L 233.74851137056478 300.80048333584296 L 233.8487047462904 300.87150973355426 L 233.94889751201464 300.942311650756 L 234.0490896677375 301.01288908744834 L 234.14928121345895 301.08324204363123 L 234.24947214917904 301.15337051930464 L 234.3496624748977 301.2232745144686 L 234.44985219061505 301.292954029123 L 234.55004129633096 301.36240906326805 L 234.65022979204548 301.43163961690357 L 234.75041767775863 301.50064569002967 L 234.8506049534704 301.5694272826463 L 234.9507916191808 301.6379843947535 L 235.0509776748898 301.70631702635114 L 235.15116312059743 301.7744251774394 L 235.25134795630365 301.8423088480182 L 235.3515321820085 301.9099680380875 L 235.45171579771198 301.9774027476474 L 235.55189880341402 302.0446129766977 L 235.65208119911472 302.11159872523865 L 235.75226298481405 302.1783599932701 L 235.85244416051196 302.2448967807921 L 235.9526247262085 302.3112090878047 L 236.05280468190367 302.3772969143077 L 236.15298402759745 302.4431602603013 L 236.25316276328985 302.50879912578546 L 236.35334088898085 302.57421351076016 L 236.45351840467046 302.6394034152254 L 236.5536953103587 302.70436883918114 L 236.65387160604556 302.7691097826274 L 236.754047291731 302.83362624556423 L 236.85422236741508 302.8979182279916 L 236.9543968330978 302.96198572990954 L 237.0545706887791 303.025828751318 L 237.15474393445905 303.0894472922169 L 237.2549165701376 303.15284135260646 L 237.35508859581475 303.21601093248654 L 237.45526001149054 303.2789560318571 L 237.55543081716493 303.3416766507182 L 237.6556010128379 303.4041727890699 L 237.7557705985095 303.4664444469121 L 237.85593957417976 303.52849162424485 L 237.95610793984864 303.59031432106815 L 238.0562756955161 303.651912537382 L 238.15644284118218 303.7132862731863 L 238.25660937684688 303.77443552848115 L 238.35677530251021 303.8353603032666 L 238.45694061817215 303.89606059754254 L 238.5571053238327 303.95653641130906 L 238.65726941949185 304.0167877445661 L 238.75743290514964 304.07681459731367 L 238.857595780806 304.13661696955177 L 238.957758046461 304.19619486128045 L 239.05791970211465 304.2555482724996 L 239.1580807477669 304.3146772032093 L 239.25824118341774 304.37358165340964 L 239.35840100906722 304.4322616231004 L 239.4585602247153 304.49071711228174 L 239.558718830362 304.5489481209536 L 239.65887682600734 304.606954649116 L 239.75903421165125 304.66473669676895 L 239.8591909872938 304.72229426391243 L 239.95934715293498 304.77962735054643 L 240.05950270857477 304.836735956671 L 240.15965765421316 304.89362008228613 L 240.25981198985016 304.9502797273918 L 240.3599657154858 305.0067148919879 L 240.46011883112004 305.0629255760746 L 240.56027133675292 305.11891177965185 L 240.66042323238437 305.17467350271966 L 240.7605745180145 305.230210745278 L 240.8607251936432 305.28552350732684 L 240.9608752592705 305.34061178886617 L 241.06102471489643 305.39547558989614 L 241.16117356052098 305.4501149104166 L 241.26132179614416 305.5045297504276 L 241.36146942176595 305.55872010992914 L 241.46161643738634 305.61268598892116 L 241.56176284300537 305.6664273874038 L 241.661908638623 305.71994430537694 L 241.76205382423925 305.77323674284065 L 241.86219839985407 305.8263046997949 L 241.96234236546755 305.8791481762396 L 242.06248572107964 305.93176717217494 L 242.16262846669036 305.98416168760076 L 242.2627706022997 306.03633172251716 L 242.36291212790763 306.0882772769241 L 242.46305304351418 306.13999835082154 L 242.56319334911936 306.19149494420947 L 242.66333304472315 306.242767057088 L 242.76347213032557 306.29381468945707 L 242.86361060592657 306.3446378413167 L 242.9637484715262 306.3952365126668 L 243.06388572712444 306.44561070350744 L 243.1640223727213 306.49576041383864 L 243.26415840831677 306.5456856436604 L 243.3642938339109 306.5953863929727 L 243.4644286495036 306.64486266177556 L 243.56456285509492 306.69411445006887 L 243.6646964506849 306.74314175785275 L 243.76482943627343 306.7919445851272 L 243.8649618118606 306.84052293189217 L 243.96509357744637 306.8888767981477 L 244.0652247330308 306.93700618389374 L 244.16535527861382 306.98491108913026 L 244.26548521419545 307.0325915138574 L 244.3656145397757 307.08004745807506 L 244.46574325535457 307.1272789217833 L 244.56587136093205 307.174285904982 L 244.66599885650817 307.2210684076712 L 244.76612574208286 307.267626429851 L 244.8662520176562 307.3139599715214 L 244.96637768322816 307.36006903268225 L 245.0665027387987 307.4059536133337 L 245.16662718436785 307.4516137134756 L 245.26675101993567 307.4970493331081 L 245.36687424550206 307.54226047223113 L 245.4669968610671 307.58724713084473 L 245.56711886663075 307.6320093089488 L 245.667240262193 307.67654700654344 L 245.76736104775387 307.72086022362856 L 245.86748122331335 307.7649489602043 L 245.96760078887147 307.80881321627055 L 246.06771974442816 307.85245299182736 L 246.1678380899835 307.8958682868747 L 246.26795582553743 307.9390591014125 L 246.36807295109 307.9820254354409 L 246.46818946664118 308.0247672889599 L 246.568305372191 308.0672846619693 L 246.66842066773938 308.10957755446935 L 246.7685353532864 308.15164596645985 L 246.86864942883207 308.19348989794094 L 246.9687628943763 308.23510934891254 L 247.0688757499192 308.27650431937474 L 247.16898799546067 308.31767480932746 L 247.26909963100076 308.3586208187707 L 247.36921065653948 308.3993423477044 L 247.46932107207684 308.4398393961287 L 247.56943087761277 308.48011196404354 L 247.66954007314735 308.52016005144895 L 247.76964865868052 308.5599836583449 L 247.86975663421234 308.5995827847313 L 247.96986399974276 308.6389574306083 L 248.06997075527178 308.6781075959758 L 248.1700769007994 308.7170332808339 L 248.27018243632565 308.75573448518253 L 248.37028736185053 308.7942112090216 L 248.47039167737404 308.8324634523513 L 248.57049538289615 308.8704912151715 L 248.67059847841688 308.9082944974823 L 248.7707009639362 308.94587329928356 L 248.87080283945417 308.9832276205754 L 248.97090410497074 309.0203574613577 L 249.07100476048592 309.0572628216306 L 249.17110480599973 309.0939437013941 L 249.27120424151212 309.13040010064805 L 249.37130306702315 309.1666320193926 L 249.47140128253278 309.2026394576276 L 249.57149888804105 309.23842241535317 L 249.67159588354795 309.2739808925693 L 249.77169226905343 309.309314889276 L 249.87178804455755 309.3444244054732 L 249.97188321006024 309.37930944116084 L 250.0719777655616 309.4139699963391 L 250.17207171106156 309.448406071008 L 250.27216504656013 309.4826176651673 L 250.3722577720573 309.5166047788172 L 250.47234988755312 309.5503674119576 L 250.57244139304754 309.5839055645885 L 250.67253228854054 309.61721923671007 L 250.7726225740322 309.6503084283221 L 250.87271224952246 309.68317313942464 L 250.97280131501134 309.71581337001777 L 251.07288977049885 309.74822912010137 L 251.17297761598496 309.78042038967556 L 251.27306485146966 309.81238717874027 L 251.373151476953 309.84412948729556 L 251.47323749243498 309.8756473153413 L 251.57332289791555 309.9069406628776 L 251.67340769339475 309.9380095299045" stroke-miterlimit="10" stroke-dasharray=""/><path fill="none" stroke="rgb(0,255,0)" paint-order="fill stroke markers" d=" M 250 102 L 190 102" stroke-miterlimit="10" stroke-width="4" stroke-dasharray=""/><path fill="none" stroke="rgb(128,128,128)" paint-order="fill stroke markers" d=" M 250 100 L 190 100" stroke-opacity="255" stroke-miterlimit="10" stroke-width="2" stroke-dasharray=""/></g></g></svg>